<?xml version="1.0" encoding="UTF-8" standalone="no"?>
<!-- Created with Inkscape (http://www.inkscape.org/) -->

<svg
   xmlns:dc="http://purl.org/dc/elements/1.1/"
   xmlns:cc="http://creativecommons.org/ns#"
   xmlns:rdf="http://www.w3.org/1999/02/22-rdf-syntax-ns#"
   xmlns:svg="http://www.w3.org/2000/svg"
   xmlns="http://www.w3.org/2000/svg"
   xmlns:sodipodi="http://sodipodi.sourceforge.net/DTD/sodipodi-0.dtd"
   xmlns:inkscape="http://www.inkscape.org/namespaces/inkscape"
   width="100mm"
   height="100mm"
   viewBox="0 0 100 100"
   version="1.1"
   id="svg8"
   inkscape:version="0.92.4 (5da689c313, 2019-01-14)"
   sodipodi:docname="hJOPrcsDebugger.svg">
  <defs
     id="defs2">
    <marker
       viewBox="0 0 10 10"
       refY="5"
       refX="0"
       orient="auto"
       markerWidth="4"
       markerUnits="strokeWidth"
       markerHeight="3"
       id="ArrowEnd">
      <path
         id="path2222"
         d="M 0,0 10,5 0,10 Z"
         inkscape:connector-curvature="0" />
    </marker>
    <marker
       viewBox="0 0 10 10"
       refY="5"
       refX="10"
       orient="auto"
       markerWidth="4"
       markerUnits="strokeWidth"
       markerHeight="3"
       id="ArrowStart">
      <path
         id="path2225"
         d="M 10,0 0,5 10,10 Z"
         inkscape:connector-curvature="0" />
    </marker>
  </defs>
  <sodipodi:namedview
     id="base"
     pagecolor="#ffffff"
     bordercolor="#666666"
     borderopacity="1.0"
     inkscape:pageopacity="0.0"
     inkscape:pageshadow="2"
     inkscape:zoom="1.4"
     inkscape:cx="132.87438"
     inkscape:cy="224.40809"
     inkscape:document-units="mm"
     inkscape:current-layer="layer1"
     showgrid="false"
     inkscape:window-width="1920"
     inkscape:window-height="1182"
     inkscape:window-x="0"
     inkscape:window-y="0"
     inkscape:window-maximized="1"
     width="100mm" />
  <metadata
     id="metadata5">
    <rdf:RDF>
      <cc:Work
         rdf:about="">
        <dc:format>image/svg+xml</dc:format>
        <dc:type
           rdf:resource="http://purl.org/dc/dcmitype/StillImage" />
        <dc:title></dc:title>
      </cc:Work>
    </rdf:RDF>
  </metadata>
  <g
     inkscape:label="Layer 1"
     inkscape:groupmode="layer"
     id="layer1"
     transform="translate(0,-197)">
    <g
       id="g902"
       transform="matrix(0.09706259,0,0,0.09706259,34.779373,224.10991)">
      <path
         style="fill:#000000;stroke:none"
         id="path2229"
         d="M 157.09375,39.375 83,39.4375 c -34.507,0 -59.90625,27.71425 -59.90625,57.90625 V 311.1875 c 0,29.25001 22.89425,53.26075 45.90625,56.96875 l -69,103.5 h 39.8125 l 49.375,-72.34375 h 67.5625 0.0625 0.0625 67.5625 l 49.375,72.34375 h 39.8125 l -69,-103.5 c 23.012,-3.708 45.90625,-27.71875 45.90625,-56.96875 V 97.34375 C 290.53126,67.151748 265.132,39.4375 230.625,39.4375 Z M 127.75,51.78125 h 29 0.0625 0.0625 29 c 5.25,0 9.8125,4.40625 9.8125,9.65625 v 17 c 0,5.25 -4.31249,9.750004 -9.8125,9.75 h -29 -0.0625 -0.0625 -29 c -5.5,0 -9.8125,-4.500004 -9.8125,-9.75 v -17 c 0,-5.25 4.5625,-9.65625 9.8125,-9.65625 z M 85,99.71875 h 71.75 0.125 71.75 c 19.5,0 29.84375,13.96875 29.84375,29.96875 v 38.5 c 0.152,18.5 -13.34374,29.81249 -29.84375,29.8125 H 156.875 156.8125 156.75 85 C 68.5,198 55.00425,186.6875 55.15625,168.1875 v -38.5 C 55.15625,113.6875 65.5,99.718752 85,99.71875 Z M 81.75,284.4375 c 14.505,10e-6 26.25,11.745 26.25,26.25 0,14.50401 -11.745,26.25 -26.25,26.25 -14.505,10e-6 -26.25,-11.746 -26.25,-26.25 0,-14.50499 11.745,-26.25 26.25,-26.25 z m 149.5,0 c 14.505,0 26.28125,11.74501 26.28125,26.25 0,14.504 -11.77625,26.25001 -26.28125,26.25 -14.505,0 -26.25,-11.74599 -26.25,-26.25 0,-14.505 11.745,-26.24999 26.25,-26.25 z"
         inkscape:connector-curvature="0" />
      <path
         style="fill:#000000;stroke:none"
         id="path2233"
         d="m 134.768,33.184 c -9.165,0 -16.591,-7.428 -16.591,-16.593 0,-9.163 7.426,-16.591 16.591,-16.591 9.163,0 16.591,7.428 16.591,16.591 0,9.165 -7.428,16.593 -16.591,16.593 z"
         inkscape:connector-curvature="0" />
      <path
         style="fill:#000000;stroke:none"
         id="path2235"
         d="m 178.854,33.184 c 9.165,0 16.591,-7.428 16.591,-16.593 C 195.445,7.428 188.019,0 178.854,0 c -9.163,0 -16.591,7.428 -16.591,16.591 0,9.165 7.428,16.593 16.591,16.593 z"
         inkscape:connector-curvature="0" />
    </g>
    <g
       id="layer1-3"
       transform="matrix(4.1661928,0,0,4.1661928,8.338072,203.25498)"
       style="fill:#000000">
      <path
         id="path1000"
         style="fill:#000000;fill-opacity:1;stroke:none;stroke-width:0px"
         d="M 4,1 V 3 H 2 V 4 H 4 V 5 H 2 V 6 H 4 V 7 H 2 V 8 H 4 V 9 H 2 v 1 h 2 v 1 H 2 v 1 h 2 v 1 H 2 v 1 h 2 v 1 H 2 v 1 h 2 v 1 H 2 v 1 h 2 v 2 h 12 v -2 h 2 v -1 h -2 v -1 h 2 v -1 h -2 v -1 h 2 v -1 h -2 v -1 h 2 v -1 h -2 v -1 h 2 V 9 H 16 V 8 h 2 V 7 H 16 V 6 h 2 V 5 H 16 V 4 h 2 V 3 H 16 V 1 H 12 L 11,2 H 9 L 8,1 Z m 1,1 h 2.5 l 1,1 h 3 l 1,-1 H 15 V 19 H 5 Z"
         inkscape:connector-curvature="0" />
    </g>
  </g>
</svg>
