<?xml version="1.0" encoding="UTF-8" standalone="no"?>
<!-- Created with Inkscape (http://www.inkscape.org/) -->

<svg
   xmlns:dc="http://purl.org/dc/elements/1.1/"
   xmlns:cc="http://creativecommons.org/ns#"
   xmlns:rdf="http://www.w3.org/1999/02/22-rdf-syntax-ns#"
   xmlns:svg="http://www.w3.org/2000/svg"
   xmlns="http://www.w3.org/2000/svg"
   xmlns:sodipodi="http://sodipodi.sourceforge.net/DTD/sodipodi-0.dtd"
   xmlns:inkscape="http://www.inkscape.org/namespaces/inkscape"
   width="1024"
   height="500"
   viewBox="0 0 270.93333 132.29167"
   version="1.1"
   id="svg8"
   inkscape:version="0.92.4 (5da689c313, 2019-01-14)"
   sodipodi:docname="storeGraphics.svg"
   inkscape:export-filename="/home/apophis/hJOPrcsDebugger.png"
   inkscape:export-xdpi="95.999992"
   inkscape:export-ydpi="95.999992">
  <defs
     id="defs2">
    <marker
       id="ArrowEnd"
       markerHeight="3"
       markerUnits="strokeWidth"
       markerWidth="4"
       orient="auto"
       refX="0"
       refY="5"
       viewBox="0 0 10 10">
      <path
         inkscape:connector-curvature="0"
         d="M 0,0 10,5 0,10 Z"
         id="path2222" />
    </marker>
    <marker
       id="ArrowStart"
       markerHeight="3"
       markerUnits="strokeWidth"
       markerWidth="4"
       orient="auto"
       refX="10"
       refY="5"
       viewBox="0 0 10 10">
      <path
         inkscape:connector-curvature="0"
         d="M 10,0 0,5 10,10 Z"
         id="path2225" />
    </marker>
    <style
       type="text/css"
       id="style4140"><![CDATA[
    .fil0 {fill:none}
    .fil1 {fill:black}
   ]]></style>
    <clipPath
       clipPathUnits="userSpaceOnUse"
       id="clipPath4181">
      <path
         d="m 0,595.28 841.89,0 L 841.89,0 0,0 0,595.28 Z"
         id="path4183"
         inkscape:connector-curvature="0" />
    </clipPath>
  </defs>
  <sodipodi:namedview
     id="base"
     pagecolor="#ffffff"
     bordercolor="#666666"
     borderopacity="1.0"
     inkscape:pageopacity="0.0"
     inkscape:pageshadow="2"
     inkscape:zoom="0.98994949"
     inkscape:cx="531.16539"
     inkscape:cy="237.37029"
     inkscape:document-units="mm"
     inkscape:current-layer="layer1"
     showgrid="false"
     inkscape:window-width="1920"
     inkscape:window-height="1182"
     inkscape:window-x="0"
     inkscape:window-y="0"
     inkscape:window-maximized="1"
     units="px" />
  <metadata
     id="metadata5">
    <rdf:RDF>
      <cc:Work
         rdf:about="">
        <dc:format>image/svg+xml</dc:format>
        <dc:type
           rdf:resource="http://purl.org/dc/dcmitype/StillImage" />
        <dc:title></dc:title>
      </cc:Work>
    </rdf:RDF>
  </metadata>
  <g
     inkscape:label="Layer 1"
     inkscape:groupmode="layer"
     id="layer1"
     transform="translate(0,-164.70832)">
    <g
       transform="translate(164.88589,-16.145851)"
       id="layer1-35"
       inkscape:label="Layer 1">
      <g
         transform="matrix(0.09706259,0,0,0.09706259,34.779373,224.10991)"
         id="g902">
        <path
           inkscape:connector-curvature="0"
           d="M 157.09375,39.375 83,39.4375 c -34.507,0 -59.90625,27.71425 -59.90625,57.90625 V 311.1875 c 0,29.25001 22.89425,53.26075 45.90625,56.96875 l -69,103.5 h 39.8125 l 49.375,-72.34375 h 67.5625 0.0625 0.0625 67.5625 l 49.375,72.34375 h 39.8125 l -69,-103.5 c 23.012,-3.708 45.90625,-27.71875 45.90625,-56.96875 V 97.34375 C 290.53126,67.151748 265.132,39.4375 230.625,39.4375 Z M 127.75,51.78125 h 29 0.0625 0.0625 29 c 5.25,0 9.8125,4.40625 9.8125,9.65625 v 17 c 0,5.25 -4.31249,9.750004 -9.8125,9.75 h -29 -0.0625 -0.0625 -29 c -5.5,0 -9.8125,-4.500004 -9.8125,-9.75 v -17 c 0,-5.25 4.5625,-9.65625 9.8125,-9.65625 z M 85,99.71875 h 71.75 0.125 71.75 c 19.5,0 29.84375,13.96875 29.84375,29.96875 v 38.5 c 0.152,18.5 -13.34374,29.81249 -29.84375,29.8125 H 156.875 156.8125 156.75 85 C 68.5,198 55.00425,186.6875 55.15625,168.1875 v -38.5 C 55.15625,113.6875 65.5,99.718752 85,99.71875 Z M 81.75,284.4375 c 14.505,10e-6 26.25,11.745 26.25,26.25 0,14.50401 -11.745,26.25 -26.25,26.25 -14.505,10e-6 -26.25,-11.746 -26.25,-26.25 0,-14.50499 11.745,-26.25 26.25,-26.25 z m 149.5,0 c 14.505,0 26.28125,11.74501 26.28125,26.25 0,14.504 -11.77625,26.25001 -26.28125,26.25 -14.505,0 -26.25,-11.74599 -26.25,-26.25 0,-14.505 11.745,-26.24999 26.25,-26.25 z"
           id="path2229"
           style="fill:#000000;stroke:none" />
        <path
           inkscape:connector-curvature="0"
           d="m 134.768,33.184 c -9.165,0 -16.591,-7.428 -16.591,-16.593 0,-9.163 7.426,-16.591 16.591,-16.591 9.163,0 16.591,7.428 16.591,16.591 0,9.165 -7.428,16.593 -16.591,16.593 z"
           id="path2233"
           style="fill:#000000;stroke:none" />
        <path
           inkscape:connector-curvature="0"
           d="m 178.854,33.184 c 9.165,0 16.591,-7.428 16.591,-16.593 C 195.445,7.428 188.019,0 178.854,0 c -9.163,0 -16.591,7.428 -16.591,16.591 0,9.165 7.428,16.593 16.591,16.593 z"
           id="path2235"
           style="fill:#000000;stroke:none" />
      </g>
      <g
         style="fill:#000000"
         transform="matrix(4.1661928,0,0,4.1661928,8.338072,203.25498)"
         id="layer1-3">
        <path
           inkscape:connector-curvature="0"
           d="M 4,1 V 3 H 2 V 4 H 4 V 5 H 2 V 6 H 4 V 7 H 2 V 8 H 4 V 9 H 2 v 1 h 2 v 1 H 2 v 1 h 2 v 1 H 2 v 1 h 2 v 1 H 2 v 1 h 2 v 1 H 2 v 1 h 2 v 2 h 12 v -2 h 2 v -1 h -2 v -1 h 2 v -1 h -2 v -1 h 2 v -1 h -2 v -1 h 2 v -1 h -2 v -1 h 2 V 9 H 16 V 8 h 2 V 7 H 16 V 6 h 2 V 5 H 16 V 4 h 2 V 3 H 16 V 1 H 12 L 11,2 H 9 L 8,1 Z m 1,1 h 2.5 l 1,1 h 3 l 1,-1 H 15 V 19 H 5 Z"
           style="fill:#000000;fill-opacity:1;stroke:none;stroke-width:0px"
           id="path1000" />
      </g>
    </g>
    <text
       xml:space="preserve"
       style="font-style:normal;font-variant:normal;font-weight:normal;font-stretch:normal;font-size:24.69444466px;line-height:1.25;font-family:'Open Sans';-inkscape-font-specification:'Open Sans';font-variant-ligatures:normal;font-variant-caps:normal;font-variant-numeric:normal;font-feature-settings:normal;text-align:start;letter-spacing:0px;word-spacing:0px;writing-mode:lr-tb;text-anchor:start;fill:#000000;fill-opacity:1;stroke:none;stroke-width:0.26458332"
       x="20.625422"
       y="223.12335"
       id="text927"><tspan
         sodipodi:role="line"
         id="tspan925"
         x="20.625422"
         y="223.12335"
         style="font-style:normal;font-variant:normal;font-weight:600;font-stretch:normal;font-family:'Open Sans';-inkscape-font-specification:'Open Sans Semi-Bold';text-align:start;text-anchor:start;stroke-width:0.26458332">hJOP RCS</tspan><tspan
         sodipodi:role="line"
         x="20.625422"
         y="253.99141"
         style="font-style:normal;font-variant:normal;font-weight:600;font-stretch:normal;font-family:'Open Sans';-inkscape-font-specification:'Open Sans Semi-Bold';text-align:start;text-anchor:start;stroke-width:0.26458332"
         id="tspan931">Debugger</tspan></text>
    <g
       style="clip-rule:evenodd;fill-rule:evenodd;image-rendering:optimizeQuality;shape-rendering:geometricPrecision;text-rendering:geometricPrecision"
       id="g4157"
       transform="matrix(0.00311398,0,0,0.00311398,352.27068,271.3073)">
      <g
         id="Vrstva_x0020_1">
        <metadata
           id="CorelCorpID_0Corel-Layer" />
        <g
           id="_229870400">
          <rect
             id="rect4145"
             height="18775"
             width="18775"
             y="494"
             x="654"
             class="fil0"
             style="fill:none" />
          <path
             id="path4147"
             d="M 18255,10672 V 7534 H 17082 V 6361 h 1173 V 1667 H 1827 V 6361 H 3000 V 7534 H 1827 v 4694 h 1173 v 1173 H 1827 v 4694 h 9005 c 907,732 2059,1173 3316,1173 2916,-1 5279,-2364 5280,-5280 0,-1257 -441,-2409 -1173,-3316 z M 8902,13401 H 4174 v -1173 h 5000 c -132,374 -227,766 -272,1173 z M 15908,7534 H 4174 V 6361 H 15908 Z M 3001,4014 H 5348 V 5187 H 3001 Z m 0,5867 h 2347 v 1173 H 3001 Z m 2347,7040 H 3001 v -1173 h 2347 z m 8801,1105 c -2230,-5 -4034,-1809 -4040,-4038 5,-2230 1809,-4034 4040,-4040 2229,5 4033,1809 4038,4040 -5,2229 -1809,4033 -4038,4038 z"
             class="fil1"
             inkscape:connector-curvature="0"
             style="fill:#000000" />
          <path
             d="m 14151,11274 -961,1 c -448,0 -777,360 -777,751 v 2774 c 0,379 297,691 595,739 l -895,1343 h 516 l 640,-938 h 876 1 1 876 l 640,938 h 516 l -895,-1343 c 299,-48 595,-360 595,-739 v -2774 c 0,-392 -329,-751 -777,-751 l -954,-1 z m -381,161 h 376 1 1 376 c 68,0 127,57 127,125 v 221 c 0,68 -56,126 -127,126 h -376 -1 -1 -376 c -71,0 -127,-58 -127,-126 v -221 c 0,-68 59,-125 127,-125 z m -555,622 h 931 2 931 c 253,0 387,181 387,389 v 499 c 2,240 -173,387 -387,387 h -931 -1 -1 -931 c -214,0 -389,-147 -387,-387 v -499 c 0,-208 134,-389 387,-389 z m -42,2396 c 188,0 341,152 341,341 0,188 -152,341 -341,341 -188,0 -341,-152 -341,-341 0,-188 152,-341 341,-341 z m 1939,0 c 188,0 341,152 341,341 0,188 -153,341 -341,341 -188,0 -341,-152 -341,-341 0,-188 152,-341 341,-341 z"
             class="fil1"
             id="path2229-9"
             inkscape:connector-curvature="0"
             style="fill:#000000" />
          <path
             d="m 13861,11194 c -119,0 -215,-96 -215,-215 0,-119 96,-215 215,-215 119,0 215,96 215,215 0,119 -96,215 -215,215 z"
             class="fil1"
             id="path2233-1"
             inkscape:connector-curvature="0"
             style="fill:#000000" />
          <path
             d="m 14433,11194 c 119,0 215,-96 215,-215 0,-119 -96,-215 -215,-215 -119,0 -215,96 -215,215 0,119 96,215 215,215 z"
             class="fil1"
             id="path2235-2"
             inkscape:connector-curvature="0"
             style="fill:#000000" />
        </g>
      </g>
    </g>
    <g
       transform="matrix(0.15930289,0,0,-0.15930289,315.75753,306.85547)"
       inkscape:label="Android_Robot_outlined"
       id="g4175">
      <g
         id="g4177" />
    </g>
  </g>
</svg>
